<svg width="582" height="100" viewBox="0 0 582 100" fill="none" xmlns="http://www.w3.org/2000/svg">
<path d="M525.433 97.7252V98.2709H525.979H534.163H534.709V97.7252V68.9105C536.631 71.2919 538.98 73.2704 541.751 74.8453L541.758 74.8489L541.764 74.8524C545.133 76.6488 549.117 77.5357 553.698 77.5357C559.097 77.5357 563.821 76.2774 567.849 73.7413L567.851 73.7399C571.936 71.1402 575.094 67.6466 577.321 63.2684C579.545 58.8938 580.654 54.0791 580.654 48.8339C580.654 43.5181 579.546 38.7022 577.32 34.3976C575.094 30.0207 571.936 26.5633 567.85 24.0363C563.822 21.4273 559.098 20.1321 553.698 20.1321C549.118 20.1321 545.134 21.0187 541.766 22.8144C538.986 24.2678 536.633 26.2049 534.709 28.6226V21.5508V21.0051H534.163H525.979H525.433V21.5508V97.7252ZM562.677 66.2741L562.677 66.2741L562.672 66.2776C559.94 68.0987 556.595 69.0234 552.607 69.0234C548.694 69.0234 545.384 68.0997 542.651 66.2776C539.899 64.4427 537.819 62.0113 536.405 58.9735C534.985 55.8477 534.273 52.4701 534.273 48.8339C534.273 45.1224 534.986 41.7461 536.404 38.6964C537.818 35.6577 539.898 33.2256 542.651 31.3902C545.384 29.5681 548.694 28.6444 552.607 28.6444C556.595 28.6444 559.94 29.5691 562.672 31.3902L562.672 31.3902L562.677 31.3937C565.504 33.2313 567.657 35.6658 569.141 38.7058C570.63 41.7534 571.378 45.1263 571.378 48.8339C571.378 52.466 570.631 55.8404 569.14 58.9642C567.656 62.0031 565.503 64.437 562.677 66.2741Z" fill="black" stroke="black" stroke-width="1.09132"/>
<path d="M477.932 73.7446L477.932 73.7446L477.938 73.7482C482.182 76.2792 487.119 77.5357 492.733 77.5357C499.294 77.5357 504.693 75.9868 508.884 72.843L508.885 72.8421C513.114 69.6521 516.195 65.5679 518.123 60.5993L518.412 59.8563H517.615H508.666H508.341L508.186 60.1425C506.775 62.7522 504.801 64.9043 502.256 66.602C499.745 68.2053 496.616 69.0234 492.842 69.0234C489.284 69.0234 486.178 68.2774 483.507 66.8023C480.82 65.246 478.669 63.1998 477.046 60.6612C475.59 58.2104 474.627 55.5426 474.158 52.6535H519.252H519.797V52.1079V48.8339C519.797 43.5181 518.689 38.7022 516.463 34.3976C514.236 30.0181 511.04 26.5603 506.88 24.0339C502.778 21.4244 497.872 20.1321 492.187 20.1321C486.572 20.1321 481.668 21.4256 477.495 24.0328C473.335 26.5592 470.138 30.0175 467.911 34.3977C465.684 38.7022 464.576 43.5181 464.576 48.8339C464.576 54.082 465.723 58.899 468.022 63.2749L468.022 63.2749L468.026 63.2813C470.399 67.6576 473.704 71.1479 477.932 73.7446ZM510.093 43.9229H474.29C475.137 39.654 477.013 36.079 479.911 33.1795C482.993 30.169 487.066 28.6444 492.187 28.6444C497.309 28.6444 501.383 30.1697 504.465 33.1817C507.432 36.0817 509.309 39.6557 510.093 43.9229Z" fill="black" stroke="black" stroke-width="1.09132"/>
<path d="M434.998 76.117V76.6627H435.543H443.728H444.274V76.117V52.1079C444.274 48.1788 445.024 44.5076 446.519 41.0884C448.085 37.6023 450.284 34.805 453.114 32.6823L453.115 32.681C455.995 30.5038 459.405 29.4083 463.372 29.4083H464.354H464.9V28.8627V20.6777V20.1321H464.354H463.809C460.401 20.1321 457.409 20.7246 454.849 21.9286C452.4 23.0423 450.343 24.4228 448.69 26.0759C447.061 27.7049 445.79 29.3464 444.886 31.0023L444.886 31.0022L444.882 31.0104C444.661 31.4323 444.458 31.8341 444.274 32.2155V21.5508V21.0051H443.728H435.543H434.998V21.5508V76.117Z" fill="black" stroke="black" stroke-width="1.09132"/>
<path d="M415.93 68.0343V73.9344C415.93 79.4454 414.5 83.5417 411.724 86.317L411.724 86.3169L411.715 86.3268C409.024 89.1561 404.653 90.6316 398.469 90.6316C394.385 90.6316 391.066 89.879 388.48 88.4109L388.48 88.4108L388.47 88.4055C385.883 87.0072 384.082 85.0278 383.041 82.4599L382.903 82.1193H382.535H373.477H372.728L372.958 82.8327C374.525 87.682 377.512 91.5989 381.899 94.574C386.307 97.6361 391.99 99.1439 398.905 99.1439C407.214 99.1439 413.694 97.0478 418.265 92.7785C422.916 88.5017 425.206 82.3729 425.206 74.48V21.5508V21.0051H424.66H416.476H415.93V21.5508V28.6257C413.995 26.2056 411.605 24.2677 408.764 22.8144C405.467 21.0177 401.519 20.1321 396.941 20.1321C391.542 20.1321 386.784 21.3903 382.686 23.9234C378.671 26.3776 375.548 29.7627 373.321 34.0669C371.093 38.3007 369.985 43.0818 369.985 48.3974C369.985 53.6424 371.094 58.4222 373.32 62.7261C375.546 67.0302 378.668 70.4507 382.681 72.9774L382.681 72.9775L382.691 72.9835C386.789 75.4421 391.545 76.6627 396.941 76.6627C401.522 76.6627 405.472 75.7759 408.77 73.9769L408.774 73.9748C411.609 72.3995 413.997 70.4193 415.93 68.0343ZM407.887 65.5083L407.887 65.5083L407.882 65.5118C405.223 67.2609 401.95 68.1503 398.032 68.1503C394.116 68.1503 390.764 67.2612 387.954 65.505C385.129 63.7395 382.979 61.3785 381.497 58.4141C380.008 55.3657 379.261 52.0296 379.261 48.3974C379.261 44.6896 380.009 41.355 381.496 38.3829C382.978 35.4175 385.128 33.0557 387.954 31.2898C390.764 29.5336 394.116 28.6444 398.032 28.6444C401.95 28.6444 405.223 29.5339 407.882 31.2829L407.882 31.2829L407.887 31.2864C410.638 33.0501 412.716 35.4094 414.128 38.3735L414.128 38.3736L414.132 38.3829C415.618 41.355 416.366 44.6896 416.366 48.3974C416.366 52.0305 415.619 55.3673 414.13 58.4164L414.13 58.4164L414.128 58.4212C412.716 61.3854 410.638 63.7446 407.887 65.5083Z" fill="black" stroke="black" stroke-width="1.09132"/>
<path d="M314.829 76.117V76.6627H315.375H323.559H324.105V76.117V44.6869C324.105 41.4971 324.813 38.7222 326.211 36.3441C327.692 33.8763 329.625 31.9818 332.011 30.6486C334.397 29.3152 337.068 28.6444 340.038 28.6444C344.411 28.6444 347.936 30.1188 350.661 33.0536L350.661 33.0536L350.665 33.0584C353.388 35.9201 354.771 39.7404 354.771 44.5777V76.117V76.6627H355.317H363.502H364.048V76.117V44.3595C364.048 39.1233 362.979 34.6924 360.808 31.0962C358.725 27.4539 355.963 24.7234 352.52 22.9256C349.166 21.0635 345.548 20.1321 341.675 20.1321C337.165 20.1321 333.417 21.0562 330.468 22.9467C328.033 24.5073 325.912 26.3588 324.105 28.501V21.5508V21.0051H323.559H315.375H314.829V21.5508V76.117Z" fill="black" stroke="black" stroke-width="1.09132"/>
<path d="M267.328 73.7446L267.328 73.7446L267.334 73.7482C271.578 76.2792 276.515 77.5357 282.129 77.5357C288.689 77.5357 294.088 75.9868 298.28 72.843L298.281 72.8421C302.51 69.6521 305.591 65.5679 307.519 60.5993L307.808 59.8563H307.011H298.062H297.737L297.582 60.1425C296.171 62.7522 294.197 64.9043 291.652 66.602C289.141 68.2053 286.012 69.0234 282.238 69.0234C278.68 69.0234 275.574 68.2774 272.903 66.8023C270.216 65.246 268.065 63.1998 266.442 60.6612C264.986 58.2104 264.023 55.5426 263.554 52.6535H308.648H309.193V52.1079V48.8339C309.193 43.5181 308.085 38.7022 305.859 34.3976C303.632 30.0181 300.436 26.5603 296.277 24.0339C292.174 21.4244 287.267 20.1321 281.583 20.1321C275.968 20.1321 271.064 21.4256 266.891 24.0328C262.731 26.5592 259.534 30.0175 257.307 34.3977C255.08 38.7022 253.972 43.5181 253.972 48.8339C253.972 54.082 255.119 58.899 257.418 63.2749L257.418 63.2749L257.422 63.2813C259.795 67.6576 263.1 71.1479 267.328 73.7446ZM299.489 43.9229H263.686C264.533 39.654 266.409 36.079 269.307 33.1795C272.389 30.169 276.462 28.6444 281.583 28.6444C286.705 28.6444 290.779 30.1697 293.861 33.1817C296.828 36.0817 298.705 39.6557 299.489 43.9229Z" fill="black" stroke="black" stroke-width="1.09132"/>
<path d="M195.725 97.7252V98.2709H196.271H204.455H205.001V97.7252V68.9105C206.923 71.2919 209.272 73.2704 212.043 74.8453L212.05 74.8489L212.056 74.8524C215.425 76.6488 219.409 77.5357 223.99 77.5357C229.389 77.5357 234.113 76.2774 238.141 73.7413L238.143 73.7399C242.228 71.1402 245.386 67.6466 247.613 63.2684C249.837 58.8938 250.946 54.0791 250.946 48.8339C250.946 43.5181 249.838 38.7022 247.612 34.3976C245.386 30.0207 242.228 26.5633 238.142 24.0363C234.114 21.4273 229.39 20.1321 223.99 20.1321C219.41 20.1321 215.426 21.0187 212.058 22.8144C209.278 24.2678 206.925 26.2049 205.001 28.6226V21.5508V21.0051H204.455H196.271H195.725V21.5508V97.7252ZM232.969 66.2741L232.969 66.2741L232.964 66.2776C230.232 68.0987 226.887 69.0234 222.899 69.0234C218.986 69.0234 215.676 68.0997 212.943 66.2776C210.191 64.4427 208.111 62.0113 206.697 58.9735C205.277 55.8477 204.565 52.4701 204.565 48.8339C204.565 45.1224 205.278 41.7461 206.696 38.6964C208.11 35.6577 210.19 33.2256 212.943 31.3902C215.676 29.5681 218.986 28.6444 222.899 28.6444C226.887 28.6444 230.232 29.5691 232.964 31.3902L232.964 31.3902L232.969 31.3937C235.796 33.2313 237.949 35.6658 239.433 38.7058C240.922 41.7534 241.67 45.1263 241.67 48.8339C241.67 52.466 240.923 55.8404 239.432 58.9642C237.948 62.0031 235.795 64.437 232.969 66.2741Z" fill="black" stroke="black" stroke-width="1.09132"/>
<path d="M124.5 66.5606L124.504 66.565C127.832 70.0404 131.787 72.738 136.365 74.6575C140.95 76.5803 146.006 77.5374 151.527 77.5374C157.048 77.5374 162.104 76.5803 166.689 74.6575C171.267 72.7379 175.187 70.0399 178.442 66.5628C181.765 63.0922 184.312 59.1038 186.084 54.6012L186.085 54.5984C187.857 50.0214 188.741 45.1525 188.741 39.9959C188.741 34.7676 187.857 29.8974 186.084 25.3906C184.312 20.888 181.765 16.8995 178.442 13.4289C175.187 9.95188 171.267 7.25383 166.689 5.33423C162.104 3.41152 157.048 2.45434 151.527 2.45434C146.006 2.45434 140.95 3.41152 136.365 5.33423C131.787 7.25382 127.832 9.95139 124.504 13.4267L124.504 13.4267L124.5 13.4312C121.251 16.9019 118.741 20.8897 116.97 25.3906C115.197 29.8974 114.313 34.7676 114.313 39.9959C114.313 45.1525 115.197 50.0214 116.969 54.5984L116.97 54.6012C118.741 59.1021 121.251 63.0899 124.5 66.5606L124.5 66.5606ZM176.035 54.4753L176.033 54.4783C173.825 58.7524 170.622 62.1709 166.413 64.7392C162.294 67.2244 157.34 68.4795 151.527 68.4795C145.789 68.4795 140.833 67.2254 136.639 64.7379C132.431 62.1698 129.191 58.7513 126.91 54.4768C124.699 50.1227 123.589 45.2991 123.589 39.9959C123.589 34.618 124.7 29.7955 126.91 25.5167C129.19 21.2417 132.429 17.8601 136.636 15.3647L136.636 15.3648L136.642 15.3612C140.836 12.8021 145.791 11.5123 151.527 11.5123C157.338 11.5123 162.29 12.8028 166.409 15.359L166.408 15.3591L166.418 15.3647C170.624 17.8599 173.826 21.2405 176.033 25.5135L176.033 25.5135L176.037 25.5198C178.319 29.7982 179.465 34.6194 179.465 39.9959C179.465 45.2982 178.319 50.1212 176.035 54.4753Z" fill="black" stroke="black" stroke-width="1.09132"/>
<path d="M57.7941 8.10794C48.188 18.4542 46.7471 35.1692 47.2274 42.2333H25.3735C26.2381 20.5844 33.8189 9.73813 37.5012 7.02114C39.0222 5.68076 43.2409 3 47.9478 3C52.6548 3 56.4732 6.40529 57.7941 8.10794ZM57.7941 8.10794C67.4002 18.4542 68.8411 35.1692 68.3608 42.2333H90.2146C89.3501 20.5844 81.7693 9.73813 78.0869 7.02114C76.566 5.68076 72.3473 3 67.6403 3C62.9333 3 59.1149 6.40529 57.7941 8.10794ZM36.4205 76.4674C26.8145 66.1211 25.3735 49.4062 25.8538 42.342H4C4.86455 63.991 12.4453 74.8372 16.1277 77.5542C17.6486 78.8946 21.8673 81.5753 26.5743 81.5753C31.2813 81.5753 35.0997 78.17 36.4205 76.4674ZM36.4205 76.4674C46.0266 66.1211 47.4675 49.4062 46.9872 42.342H68.8411C67.9765 63.991 60.3957 74.8372 56.7134 77.5542C55.1924 78.8946 50.9738 81.5753 46.2668 81.5753C41.5598 81.5753 37.7414 78.17 36.4205 76.4674Z" stroke="black" stroke-width="6"/>
</svg>
